<?xml version="1.0" encoding="UTF-8"?>
<svg id="Layer_1" xmlns="http://www.w3.org/2000/svg" version="1.1" viewBox="0 0 595.28 841.89">
  <!-- Generator: Adobe Illustrator 29.5.1, SVG Export Plug-In . SVG Version: 2.1.0 Build 141)  -->
  <defs>
    <style>
      .st0, .st1, .st2 {
        fill: #231f20;
      }

      .st1 {
        font-family: Helvetica-Bold, Helvetica;
        font-size: 44.72px;
        font-weight: 700;
        letter-spacing: .05em;
      }

      .st2 {
        font-family: Helvetica-Light, Helvetica;
        font-size: 80.71px;
        font-weight: 300;
      }

      .st3 {
        fill: none;
        stroke: #231f20;
        stroke-miterlimit: 10;
        stroke-width: 7.75px;
      }
    </style>
  </defs>
  <g>
    <path class="st3" d="M114.79,609.23c-25.62,0-46.4-20.77-46.4-46.4s20.77-46.4,46.4-46.4"/>
    <path class="st3" d="M145.63,562.83c0,17.03-13.81,30.84-30.84,30.84s-30.84-13.81-30.84-30.84,13.81-30.84,30.84-30.84"/>
    <path class="st0" d="M114.79,555.29c4.16,0,7.54,3.38,7.54,7.54s-3.38,7.54-7.54,7.54-7.54-3.38-7.54-7.54,3.38-7.54,7.54-7.54M114.79,547.54c-8.45,0-15.29,6.85-15.29,15.29s6.85,15.29,15.29,15.29,15.29-6.85,15.29-15.29-6.85-15.29-15.29-15.29h0Z"/>
  </g>
  <text class="st1" transform="translate(168.08 547.63)"><tspan x="0" y="0">PROJECT</tspan></text>
  <text class="st2" transform="translate(164.71 615.61)"><tspan x="0" y="0">ECHO</tspan></text>
</svg>