<?xml version="1.0" encoding="UTF-8"?>
<svg id="Layer_1" xmlns="http://www.w3.org/2000/svg" version="1.1" viewBox="0 0 328.83 111.15">
  <!-- Generator: Adobe Illustrator 29.5.1, SVG Export Plug-In . SVG Version: 2.1.0 Build 141)  -->
  <defs>
    <style>
      .st0 {
        font-family: Helvetica-Bold, Helvetica;
        font-size: 44.72px;
        font-weight: 700;
        letter-spacing: .05em;
      }

      .st0, .st1, .st2 {
        fill: #231f20;
      }

      .st0, .st3, .st2 {
        isolation: isolate;
      }

      .st4 {
        fill: none;
        stroke: #231f20;
        stroke-miterlimit: 10;
        stroke-width: 7.75px;
      }

      .st2 {
        font-family: Helvetica-Light, Helvetica;
        font-size: 80.71px;
        font-weight: 300;
      }
    </style>
  </defs>
  <g>
    <path class="st4" d="M50.27,100.06c-25.62,0-46.4-20.77-46.4-46.4S24.65,7.27,50.27,7.27"/>
    <path class="st4" d="M81.11,53.66c0,17.03-13.81,30.84-30.84,30.84s-30.84-13.81-30.84-30.84,13.81-30.84,30.84-30.84"/>
    <path class="st1" d="M50.27,46.12c4.16,0,7.54,3.38,7.54,7.54s-3.38,7.54-7.54,7.54-7.54-3.38-7.54-7.54,3.38-7.54,7.54-7.54M50.27,38.37c-8.45,0-15.29,6.85-15.29,15.29s6.85,15.29,15.29,15.29,15.29-6.85,15.29-15.29-6.85-15.29-15.29-15.29h0Z"/>
  </g>
  <g class="st3">
    <text class="st0" transform="translate(103.57 38.46)"><tspan x="0" y="0">PROJECT</tspan></text>
  </g>
  <g class="st3">
    <text class="st2" transform="translate(100.2 106.44)"><tspan x="0" y="0">ECHO</tspan></text>
  </g>
</svg>